<?xml version="1.0" encoding="UTF-8"?><svg id="Layer_2" xmlns="http://www.w3.org/2000/svg" viewBox="0 0 108.56 78.74"><defs><style>.cls-1{fill:#e8423c;}</style></defs><g id="Layer_1-2"><g><path class="cls-1" d="M0,56.71H19.76V22.22c0-1.94-1.57-3.51-3.51-3.51H3.51c-1.94,0-3.51,1.57-3.51,3.51V56.71Z"/><path class="cls-1" d="M73.31,78.74h34.46v-15.29h-34.46c-1.96,0-3.54,1.59-3.54,3.54v8.21c0,1.96,1.59,3.54,3.54,3.54Z"/><path class="cls-1" d="M73.28,0h-10.05c-3.23,0-6.45,.33-9.61,.99l-19.72,4.11c-3.47,.72-5.96,3.78-5.96,7.33V57.04h19.76V14.92l10.67-2.23V57.04h19.76V12.69l10.67,2.23V57.11h19.76V12.43c0-3.55-2.49-6.61-5.96-7.33L82.88,.99c-3.16-.66-6.38-.99-9.61-.99Z"/></g></g></svg>