<?xml version="1.0" encoding="UTF-8"?><svg id="Layer_2" xmlns="http://www.w3.org/2000/svg" viewBox="0 0 76.72 55.65"><defs><style>.cls-1{fill:#c41a1a;}</style></defs><g id="Layer_1-2"><g><path class="cls-1" d="M0,40.08H13.97V15.71c0-1.37-1.11-2.48-2.48-2.48H2.48c-1.37,0-2.48,1.11-2.48,2.48v24.37Z"/><path class="cls-1" d="M51.81,55.65h24.35v-10.8h-24.35c-1.38,0-2.5,1.12-2.5,2.5v5.8c0,1.38,1.12,2.5,2.5,2.5Z"/><path class="cls-1" d="M51.79,0h-7.11c-2.28,0-4.56,.23-6.79,.7l-13.94,2.91c-2.45,.51-4.21,2.67-4.21,5.18v31.52h13.97V10.54l7.54-1.57v31.34h13.97V8.97l7.54,1.57v29.82h13.97V8.79c0-2.51-1.76-4.67-4.21-5.18L58.57,.7c-2.23-.47-4.51-.7-6.79-.7Z"/></g></g></svg>