<?xml version="1.0" encoding="UTF-8"?><svg id="Layer_2" xmlns="http://www.w3.org/2000/svg" viewBox="0 0 335.02 78.74"><defs><style>.cls-1{fill:#e8423c;}</style></defs><g id="Layer_1-2"><g><path class="cls-1" d="M167.25,6.42c10.45-.11,19.31,8.68,19.16,19.16,.15,10.45-8.71,19.31-19.16,19.16h-29.08v12.37h-19.76V13.5c0-3.91,3.17-7.08,7.08-7.08h41.76Zm-4.94,23.46c1.17,0,2.19-.41,3.02-1.24s1.28-1.89,1.28-3.05-.41-2.23-1.28-3.06c-.83-.87-1.85-1.28-3.02-1.28h-24.14v8.64h24.14Z"/><path class="cls-1" d="M210.4,6.42h12.56c3.37,0,6.46,1.85,8.06,4.82l24.61,45.87h-22.25l-4-8.67h-25.38l-4,8.67h-22.25l24.61-45.87c1.59-2.97,4.69-4.82,8.06-4.82Zm-.68,29.64h13.92l-6.94-14.97-6.98,14.97Z"/><path class="cls-1" d="M311.28,6.42h18.15c2.02,0,3.01,2.47,1.55,3.86l-22.54,21.48,26.59,25.35h-24.7l-14.22-14.82-14.22,14.82h-24.74l26.59-25.35-22.54-21.48c-1.46-1.39-.48-3.86,1.55-3.86h18.19c.61,0,1.19,.25,1.61,.69l13.56,14.1,13.56-14.1c.42-.44,1.01-.69,1.61-.69Z"/><g><path class="cls-1" d="M0,56.71H19.76V22.22c0-1.94-1.57-3.51-3.51-3.51H3.51c-1.94,0-3.51,1.57-3.51,3.51V56.71Z"/><path class="cls-1" d="M73.31,78.74h34.46v-15.29h-34.46c-1.96,0-3.54,1.59-3.54,3.54v8.21c0,1.96,1.59,3.54,3.54,3.54Z"/><path class="cls-1" d="M73.28,0h-10.05c-3.23,0-6.45,.33-9.61,.99l-19.72,4.11c-3.47,.72-5.96,3.78-5.96,7.33V57.04h19.76V14.92l10.67-2.23V57.04h19.76V12.69l10.67,2.23V57.11h19.76V12.43c0-3.55-2.49-6.61-5.96-7.33L82.88,.99c-3.16-.66-6.38-.99-9.61-.99Z"/></g></g></g></svg>