<?xml version="1.0" encoding="UTF-8"?><svg id="Layer_2" xmlns="http://www.w3.org/2000/svg" viewBox="0 0 400.31 94.09"><defs><style>.cls-1{fill:#c41a1a;}</style></defs><g id="Layer_1-2"><g><path class="cls-1" d="M199.84,7.67c12.48-.14,23.07,10.37,22.89,22.89,.18,12.48-10.41,23.07-22.89,22.89h-34.74v14.78h-23.61V16.13c0-4.67,3.79-8.46,8.46-8.46h49.9Zm-5.9,28.03c1.4,0,2.61-.5,3.6-1.49,1.04-1.04,1.53-2.25,1.53-3.65s-.5-2.66-1.53-3.65c-.99-1.04-2.21-1.53-3.6-1.53h-28.84v10.32h28.84Z"/><path class="cls-1" d="M251.41,7.67h15c4.02,0,7.72,2.21,9.63,5.76l29.4,54.81h-26.59l-4.78-10.36h-30.33l-4.78,10.36h-26.59l29.4-54.81c1.9-3.55,5.6-5.76,9.63-5.76Zm-.81,35.42h16.63l-8.29-17.89-8.34,17.89Z"/><path class="cls-1" d="M371.94,7.67h21.69c2.42,0,3.6,2.95,1.85,4.61l-26.93,25.67,31.77,30.28h-29.52l-16.99-17.71-16.99,17.71h-29.56l31.77-30.28-26.93-25.67c-1.75-1.67-.57-4.61,1.85-4.61h21.74c.73,0,1.42,.3,1.93,.82l16.2,16.84,16.2-16.84c.5-.52,1.2-.82,1.93-.82Z"/><g><path class="cls-1" d="M0,67.76H23.61V26.55c0-2.32-1.88-4.19-4.19-4.19H4.19c-2.32,0-4.19,1.88-4.19,4.19v41.21Z"/><path class="cls-1" d="M87.59,94.09h41.17v-18.27h-41.17c-2.34,0-4.23,1.89-4.23,4.23v9.8c0,2.34,1.89,4.23,4.23,4.23Z"/><path class="cls-1" d="M87.56,0h-12.01c-3.86,0-7.7,.4-11.48,1.18l-23.57,4.91c-4.15,.87-7.12,4.52-7.12,8.76v53.29h23.61V17.82l12.75-2.66v52.99h23.61V15.16l12.75,2.66v50.42h23.61V14.86c0-4.24-2.97-7.89-7.12-8.76L99.03,1.18c-3.78-.79-7.62-1.18-11.48-1.18Z"/></g></g></g></svg>